<svg width="27" height="14" viewBox="0 0 27 14" fill="none" xmlns="http://www.w3.org/2000/svg">
<path fill-rule="evenodd" clip-rule="evenodd" d="M11.0455 10.6932V13.1477H6.13636C2.74735 13.1477 0 10.4004 0 7.01136C0 3.62235 2.74735 0.875 6.13636 0.875H11.0455V3.32955H6.13636C4.10296 3.32955 2.45455 4.9779 2.45455 7.01136C2.45455 9.04483 4.10296 10.6932 6.13636 10.6932H11.0455ZM15.9545 3.32955V0.875H20.8636C24.2526 0.875 27 3.62235 27 7.01136C27 10.4004 24.2526 13.1477 20.8636 13.1477H15.9545V10.6932H20.8636C22.8971 10.6932 24.5455 9.04483 24.5455 7.01136C24.5455 4.9779 22.8971 3.32955 20.8636 3.32955H15.9545ZM19.6364 5.78409H7.36364V8.23864H19.6364V5.78409Z" fill="black"/>
</svg>
