<svg width="27" height="27" viewBox="0 0 27 27" fill="none" xmlns="http://www.w3.org/2000/svg">
<path fill-rule="evenodd" clip-rule="evenodd" d="M19.4904 0C20.3742 0 21.2215 0.352876 21.8403 0.976505L26.0265 5.16224C26.6498 5.78543 27 6.63067 27 7.51199C27 8.39332 26.6498 9.23855 26.0265 9.86175L10.7426 25.1392C9.79963 26.2268 8.46297 26.895 6.93168 27H0V25.6502L0.00438732 19.9606C0.119393 18.5371 0.781201 17.2136 1.79077 16.3242L17.1387 0.978138C17.7611 0.35208 18.6075 0 19.4904 0ZM6.83634 24.3037C7.55755 24.2527 8.22887 23.9171 8.76792 23.3005L18.9765 13.0931L13.908 8.02508L3.63972 18.2899C3.09277 18.7735 2.75441 19.4502 2.69999 20.0692V24.3011L6.83634 24.3037ZM15.8175 6.11635L20.8856 11.1841L24.1174 7.95277C24.2343 7.83588 24.3 7.67732 24.3 7.51199C24.3 7.34666 24.2343 7.18811 24.1174 7.07122L19.9274 2.88173C19.8118 2.76522 19.6544 2.69969 19.4904 2.69969C19.3262 2.69969 19.1688 2.76522 19.0533 2.88173L15.8175 6.11635Z" fill="black"/>
</svg>
