<svg width="27" height="27" viewBox="0 0 27 27" fill="none" xmlns="http://www.w3.org/2000/svg">
<path fill-rule="evenodd" clip-rule="evenodd" d="M11.9629 8.55661C12.6623 7.61412 12.9131 6.62082 12.122 5.74405C10.3469 3.26033 9.15305 1.7244 8.40419 0.984741C6.98055 -0.421452 4.63861 -0.231243 3.40561 0.983539C2.74335 1.63601 2.51916 1.86007 1.83918 2.55068C-1.94846 6.33996 0.361437 14.3504 6.50197 20.4963C12.6411 26.6409 20.6516 28.9517 24.4472 25.1544C25.0746 24.5496 25.6059 24.0181 26.0249 23.5752C27.2332 22.2983 27.4166 20.0599 26.0169 18.6057C25.2994 17.8602 23.8345 16.724 21.246 14.8727C20.4533 14.1639 19.5133 14.3175 18.6515 14.8828C18.237 15.1548 17.9353 15.4298 17.3656 15.9999L16.3312 17.0349C16.195 17.1712 14.345 16.2448 12.5491 14.4473C10.7522 12.6489 9.82637 10.7989 9.96197 10.6634L10.9971 9.62775C11.1779 9.44687 11.2643 9.35929 11.3751 9.24284C11.6059 9.00023 11.7971 8.78006 11.9629 8.55661ZM18.2393 18.9439L19.274 17.9088C19.5876 17.5949 19.7907 17.402 19.956 17.2691C22.2236 18.8973 23.5367 19.921 24.0732 20.4784C24.3952 20.8129 24.3452 21.4234 24.0652 21.7193C23.6778 22.1287 23.1744 22.6324 22.5566 23.2282C20.1023 25.6833 13.6361 23.8178 8.41053 18.5878C3.18335 13.356 1.31863 6.88938 3.75446 4.45247C4.43171 3.7647 4.64628 3.55026 5.29907 2.90709C5.54384 2.66595 6.21055 2.6118 6.50831 2.90589C7.08484 3.47537 8.15431 4.84461 9.72756 7.03589C9.64612 7.137 9.54439 7.25125 9.4206 7.38134C9.32974 7.47682 9.25405 7.55355 9.08856 7.71918L8.05444 8.75377C6.29518 10.5127 7.79343 13.5063 10.6405 16.3559C13.4857 19.2036 16.4807 20.7033 18.2393 18.9439Z" fill="black"/>
</svg>
