<svg width="25" height="25" viewBox="0 0 25 25" fill="none" xmlns="http://www.w3.org/2000/svg">
<path fill-rule="evenodd" clip-rule="evenodd" d="M12.375 24.75C5.54048 24.75 0 19.2095 0 12.375C0 5.54048 5.54048 0 12.375 0C19.2095 0 24.75 5.54048 24.75 12.375C24.75 19.2095 19.2095 24.75 12.375 24.75ZM12.375 22.5C17.9669 22.5 22.5 17.9669 22.5 12.375C22.5 6.78312 17.9669 2.25 12.375 2.25C6.78312 2.25 2.25 6.78312 2.25 12.375C2.25 17.9669 6.78312 22.5 12.375 22.5ZM17.8994 16.2544L16.059 14.96C15.2205 16.1523 13.8594 16.875 12.375 16.875C10.8906 16.875 9.52954 16.1523 8.69102 14.96L6.85062 16.2544C8.10613 18.0396 10.1502 19.125 12.375 19.125C14.5998 19.125 16.6438 18.0396 17.8994 16.2544ZM14.625 11.25V9H16.875V11.25H14.625ZM7.875 9V11.25H10.125V9H7.875Z" fill="black"/>
</svg>
