<svg width="27" height="28" viewBox="0 0 27 28" fill="none" xmlns="http://www.w3.org/2000/svg">
<path fill-rule="evenodd" clip-rule="evenodd" d="M27 13.625C27 6.16916 20.9558 0.125 13.5 0.125C6.04416 0.125 0 6.16916 0 13.625C0 21.0808 6.04416 27.125 13.5 27.125C20.9558 27.125 27 21.0808 27 13.625ZM3.24285 9.51918C4.36381 6.72133 6.59635 4.48881 9.39418 3.36785C8.73774 4.63507 8.2228 6.21502 7.87573 8.00073C6.09002 8.3478 4.51007 8.86274 3.24285 9.51918ZM17.6058 3.36785C18.2623 4.63507 18.7772 6.21502 19.1242 8.00073C20.91 8.3478 22.4899 8.86274 23.7572 9.51918C22.6362 6.72133 20.4037 4.48881 17.6058 3.36785ZM2.45455 13.625C2.45455 12.5214 4.45338 11.3239 7.50413 10.6037C7.41156 11.5764 7.36364 12.588 7.36364 13.625C7.36364 14.662 7.41156 15.6736 7.50413 16.6463C4.45338 15.9261 2.45455 14.7286 2.45455 13.625ZM19.6364 13.625C19.6364 14.662 19.5885 15.6736 19.4958 16.6463C22.5466 15.9261 24.5455 14.7286 24.5455 13.625C24.5455 12.5214 22.5466 11.3239 19.4958 10.6037C19.5885 11.5764 19.6364 12.588 19.6364 13.625ZM3.24285 17.7308C4.51007 18.3873 6.09002 18.9022 7.87573 19.2492C8.2228 21.035 8.73774 22.6149 9.39418 23.8822C6.59633 22.7612 4.36381 20.5287 3.24285 17.7308ZM19.1242 19.2492C18.7772 21.035 18.2623 22.6149 17.6058 23.8822C20.4037 22.7612 22.6362 20.5287 23.7572 17.7308C22.4899 18.3873 20.91 18.9022 19.1242 19.2492ZM9.81818 13.625C9.81818 12.4096 9.89441 11.2437 10.03 10.155C11.1187 10.0194 12.2846 9.94318 13.5 9.94318C14.7154 9.94318 15.8813 10.0194 16.97 10.155C17.1056 11.2437 17.1818 12.4096 17.1818 13.625C17.1818 14.8404 17.1056 16.0063 16.97 17.095C15.8813 17.2306 14.7154 17.3068 13.5 17.3068C12.2846 17.3068 11.1187 17.2306 10.03 17.095C9.89441 16.0063 9.81818 14.8404 9.81818 13.625ZM10.4787 19.6208C11.1989 22.6716 12.3964 24.6705 13.5 24.6705C14.6036 24.6705 15.8011 22.6716 16.5213 19.6208C15.5486 19.7135 14.537 19.7614 13.5 19.7614C12.463 19.7614 11.4514 19.7135 10.4787 19.6208ZM13.5 2.57955C12.3964 2.57955 11.1989 4.57838 10.4787 7.62913C11.4514 7.53656 12.463 7.48864 13.5 7.48864C14.537 7.48864 15.5486 7.53656 16.5213 7.62913C15.8011 4.57838 14.6036 2.57955 13.5 2.57955Z" fill="black"/>
</svg>
